<?xml version="1.0" encoding="UTF-8" standalone="no"?>
<!DOCTYPE svg PUBLIC "-//W3C//DTD SVG 1.1//EN" "http://www.w3.org/Graphics/SVG/1.1/DTD/svg11.dtd">
<svg version="1.1" xmlns="http://www.w3.org/2000/svg" xmlns:xlink="http://www.w3.org/1999/xlink" preserveAspectRatio="xMidYMid meet" viewBox="0 0 144 128" width="144" height="128"><defs><path d="M16 0L32 0L32 16L16 16L16 0Z" id="bYxR13MNx"></path><path d="M32 0L48 0L48 16L32 16L32 0Z" id="a9WIF1XMHR"></path><path d="M0 16L16 16L16 32L0 32L0 16Z" id="b2fhZkQJ8p"></path><path d="M0 32L16 32L16 48L0 48L0 32Z" id="b41OzNdFTP"></path><path d="M0 48L16 48L16 64L0 64L0 48Z" id="c4g77viKrY"></path><path d="M128 48L144 48L144 64L128 64L128 48Z" id="b1x9LfC3uC"></path><path d="M128 32L144 32L144 48L128 48L128 32Z" id="amWyUsnvy"></path><path d="M128 16L144 16L144 32L128 32L128 16Z" id="a681qAegQG"></path><path d="M112 0L128 0L128 16L112 16L112 0Z" id="aFlu9d15"></path><path d="M96 0L112 0L112 16L96 16L96 0Z" id="cxDc4EBJ"></path><path d="M128 0L144 16L128 16L128 0Z" id="a30pH2psDd"></path><path d="M16 0L0 16L16 16L16 0Z" id="h1zqGKKCe"></path><path d="M48 0L64 16L48 16L48 0Z" id="b147TMYJX"></path><path d="M96 0L80 16L96 16L96 0Z" id="dcoGQCOLn"></path><path d="M16 80L0 64L16 64L16 80Z" id="b4BlFCrY9p"></path><path d="M32 96L16 80L32 80L32 96Z" id="a1lJAMxP7q"></path><path d="M48 112L32 96L48 96L48 112Z" id="aCIvcOTLq"></path><path d="M64 128L48 112L64 112L64 128Z" id="f1eFjpweXe"></path><path d="M80 128L96 112L80 112L80 128Z" id="b953YZ7ZP"></path><path d="M96 112L112 96L96 96L96 112Z" id="a56sHGh0tl"></path><path d="M112 96L128 80L112 80L112 96Z" id="bFd2hzKvi"></path><path d="M128 80L144 64L128 64L128 80Z" id="aeVssjJpm"></path><path d="M16 64L32 80L16 80L16 64Z" id="ddl0ya79V"></path><path d="M32 80L48 96L32 96L32 80Z" id="b6qk7X0V"></path><path d="M48 96L64 112L48 112L48 96Z" id="f2k0RG5AuS"></path><path d="M96 96L80 112L96 112L96 96Z" id="c8GBkX1Iqq"></path><path d="M112 81L96 96L112 96L112 81Z" id="auILK5HsK"></path><path d="M128 64L112 80L128 80L128 64Z" id="b2Auwz0MiL"></path><path d="M16 32L32 16L16 16L16 32Z" id="btwPxJOb9"></path><path d="M128 32L112 16L128 16L128 32Z" id="aqdIBsFgO"></path><path d="M64 32L48 16L64 16L64 32Z" id="f11d7ZeMyq"></path><path d="M80 32L96 16L80 16L80 32Z" id="apiLKpWSk"></path><path d="" id="a25kd4MeX"></path></defs><g><g><g><use xlink:href="#bYxR13MNx" opacity="1" fill="#474747" fill-opacity="1"></use></g><g><use xlink:href="#a9WIF1XMHR" opacity="1" fill="#727272" fill-opacity="1"></use></g><g><use xlink:href="#b2fhZkQJ8p" opacity="1" fill="#383838" fill-opacity="1"></use></g><g><use xlink:href="#b41OzNdFTP" opacity="1" fill="#424141" fill-opacity="1"></use></g><g><use xlink:href="#c4g77viKrY" opacity="1" fill="#595555" fill-opacity="1"></use></g><g><use xlink:href="#b1x9LfC3uC" opacity="1" fill="#00ff87" fill-opacity="1"></use></g><g><use xlink:href="#amWyUsnvy" opacity="1" fill="#cfff00" fill-opacity="1"></use></g><g><use xlink:href="#a681qAegQG" opacity="1" fill="#ffe700" fill-opacity="1"></use></g><g><use xlink:href="#aFlu9d15" opacity="1" fill="#ffc300" fill-opacity="1"></use></g><g><use xlink:href="#cxDc4EBJ" opacity="1" fill="#ff9f00" fill-opacity="1"></use></g><g><use xlink:href="#a30pH2psDd" opacity="1" fill="#ffd500" fill-opacity="1"></use></g><g><use xlink:href="#h1zqGKKCe" opacity="1" fill="#000000" fill-opacity="1"></use></g><g><use xlink:href="#b147TMYJX" opacity="1" fill="#939393" fill-opacity="1"></use></g><g><use xlink:href="#dcoGQCOLn" opacity="1" fill="#ff6900" fill-opacity="1"></use></g><g><use xlink:href="#b4BlFCrY9p" opacity="1" fill="#5d5d5d" fill-opacity="1"></use></g><g><use xlink:href="#a1lJAMxP7q" opacity="1" fill="#8d8d8d" fill-opacity="1"></use></g><g><use xlink:href="#aCIvcOTLq" opacity="1" fill="#b0b0b0" fill-opacity="1"></use></g><g><use xlink:href="#f1eFjpweXe" opacity="1" fill="#e4e4e4" fill-opacity="1"></use></g><g><use xlink:href="#b953YZ7ZP" opacity="1" fill="#ff00b7" fill-opacity="1"></use></g><g><use xlink:href="#a56sHGh0tl" opacity="1" fill="#9c00ff" fill-opacity="1"></use></g><g><use xlink:href="#bFd2hzKvi" opacity="1" fill="#0072ff" fill-opacity="1"></use></g><g><use xlink:href="#aeVssjJpm" opacity="1" fill="#00f9ff" fill-opacity="1"></use></g><g><use xlink:href="#ddl0ya79V" opacity="1" fill="#777777" fill-opacity="1"></use></g><g><use xlink:href="#b6qk7X0V" opacity="1" fill="#9f9f9f" fill-opacity="1"></use></g><g><use xlink:href="#f2k0RG5AuS" opacity="1" fill="#bdbdbd" fill-opacity="1"></use></g><g><use xlink:href="#c8GBkX1Iqq" opacity="1" fill="#ed00ff" fill-opacity="1"></use></g><g><use xlink:href="#auILK5HsK" opacity="1" fill="#6600ff" fill-opacity="1"></use></g><g><use xlink:href="#b2Auwz0MiL" opacity="1" fill="#00c3ff" fill-opacity="1"></use></g><g><use xlink:href="#btwPxJOb9" opacity="1" fill="#262525" fill-opacity="1"></use></g><g><use xlink:href="#aqdIBsFgO" opacity="1" fill="#ffd500" fill-opacity="1"></use></g><g><use xlink:href="#f11d7ZeMyq" opacity="1" fill="#d7d7d7" fill-opacity="1"></use></g><g><use xlink:href="#apiLKpWSk" opacity="1" fill="#ff0000" fill-opacity="1"></use></g><g><g><use xlink:href="#a25kd4MeX" opacity="1" fill-opacity="0" stroke="#000000" stroke-width="1" stroke-opacity="1"></use></g></g></g></g></svg>